<svg width="1254" height="512" viewBox="0 0 1254 512" fill="none" xmlns="http://www.w3.org/2000/svg">
<rect width="512" height="512" fill="#E63A20"/>
<rect x="255" width="2" height="512" fill="url(#paint0_linear_15_48)"/>
<rect y="255" width="512" height="2" fill="url(#paint1_linear_15_48)"/>
<path d="M352.04 439V359.64H361.16L362.6 371.64H363.24C365.373 367.907 368.733 364.653 373.32 361.88C378.013 359.107 383.453 357.72 389.64 357.72C399.347 357.72 406.6 360.6 411.4 366.36C416.2 372.013 418.6 380.067 418.6 390.52V439H407.4V391.8C407.4 384.44 405.747 378.68 402.44 374.52C399.133 370.36 394.067 368.28 387.24 368.28C380.627 368.28 374.973 370.573 370.28 375.16C365.587 379.64 363.24 386.147 363.24 394.68V439H352.04Z" fill="white"/>
<path d="M128.76 440.92C122.573 440.92 117.293 439.64 112.92 437.08C108.653 434.413 105.507 430.893 103.48 426.52H102.52L100.92 439H92.28V323.8H103.48V371.8C105.613 368.067 108.867 364.813 113.24 362.04C117.613 359.16 122.787 357.72 128.76 357.72C135.693 357.72 141.773 359.32 147 362.52C152.227 365.72 156.333 370.413 159.32 376.6C162.307 382.787 163.8 390.307 163.8 399.16C163.8 408.013 162.307 415.587 159.32 421.88C156.333 428.067 152.173 432.813 146.84 436.12C141.613 439.32 135.587 440.92 128.76 440.92ZM127.96 430.36C135.107 430.36 140.973 427.8 145.56 422.68C150.147 417.56 152.44 409.773 152.44 399.32C152.44 388.867 150.147 381.08 145.56 375.96C140.973 370.84 135.107 368.28 127.96 368.28C120.813 368.28 114.947 370.84 110.36 375.96C105.773 381.08 103.48 388.867 103.48 399.32C103.48 409.773 105.773 417.56 110.36 422.68C114.947 427.8 120.813 430.36 127.96 430.36Z" fill="white"/>
<path d="M384.36 88.28C381.693 88.28 379.347 87.32 377.32 85.4C375.4 83.3733 374.44 81.0267 374.44 78.36C374.44 75.5867 375.4 73.24 377.32 71.32C379.347 69.4 381.693 68.44 384.36 68.44C387.133 68.44 389.48 69.4 391.4 71.32C393.32 73.24 394.28 75.5867 394.28 78.36C394.28 81.0267 393.32 83.3733 391.4 85.4C389.48 87.32 387.133 88.28 384.36 88.28ZM353.8 183V173.4H379.4V116.44C379.4 114.307 378.333 113.24 376.2 113.24H357V103.64H379.4C386.867 103.64 390.6 107.373 390.6 114.84V173.4H416.2V183H353.8Z" fill="white"/>
<path d="M120.6 184.92C114.307 184.92 109.08 183.8 104.92 181.56C100.867 179.32 97.8267 176.333 95.8 172.6C93.88 168.867 92.92 164.813 92.92 160.44C92.92 152.12 95.96 145.933 102.04 141.88C108.227 137.72 116.013 135.64 125.4 135.64H148.12V134.2C148.12 126.733 146.307 121.133 142.68 117.4C139.16 113.56 134.093 111.64 127.48 111.64C121.933 111.64 117.347 112.867 113.72 115.32C110.2 117.667 107.96 121.4 107 126.52H95.16C95.6933 121.187 97.4533 116.707 100.44 113.08C103.533 109.347 107.427 106.52 112.12 104.6C116.813 102.68 121.933 101.72 127.48 101.72C138.573 101.72 146.627 104.76 151.64 110.84C156.76 116.813 159.32 124.6 159.32 134.2V183H149.72L148.6 170.2H147.64C145.293 174.147 142.04 177.613 137.88 180.6C133.72 183.48 127.96 184.92 120.6 184.92ZM122.36 174.68C127.693 174.68 132.28 173.347 136.12 170.68C139.96 168.013 142.893 164.547 144.92 160.28C147.053 156.013 148.12 151.533 148.12 146.84V145.24H126.2C118.307 145.24 112.707 146.627 109.4 149.4C106.2 152.173 104.6 155.747 104.6 160.12C104.6 164.6 106.093 168.173 109.08 170.84C112.067 173.4 116.493 174.68 122.36 174.68Z" fill="white"/>
<path d="M673.024 131.536C667.989 131.536 663.808 130.64 660.48 128.848C657.152 127.056 654.677 124.709 653.056 121.808C651.435 118.821 650.624 115.579 650.624 112.08C650.624 105.595 652.971 100.688 657.664 97.36C662.443 93.9467 668.8 92.24 676.736 92.24H694.144V90.96C694.144 79.8667 689.067 74.32 678.912 74.32C674.816 74.32 671.36 75.216 668.544 77.008C665.813 78.8 664.064 81.616 663.296 85.456H652.288C652.715 81.1893 654.123 77.52 656.512 74.448C658.987 71.376 662.144 69.0293 665.984 67.408C669.824 65.7867 674.133 64.976 678.912 64.976C687.957 64.976 694.528 67.3653 698.624 72.144C702.805 76.8373 704.896 83.1093 704.896 90.96V130H695.68L694.784 120.144H693.888C692.011 123.216 689.493 125.904 686.336 128.208C683.264 130.427 678.827 131.536 673.024 131.536ZM674.944 122.064C679.04 122.064 682.496 121.083 685.312 119.12C688.213 117.157 690.389 114.555 691.84 111.312C693.376 108.069 694.144 104.528 694.144 100.688H677.632C671.829 100.688 667.733 101.669 665.344 103.632C663.04 105.595 661.888 108.197 661.888 111.44C661.888 114.768 662.997 117.371 665.216 119.248C667.435 121.125 670.677 122.064 674.944 122.064ZM754.382 55.248C751.822 55.248 749.689 54.3947 747.982 52.688C746.275 50.9813 745.422 48.9333 745.422 46.544C745.422 44.0693 746.275 42.0213 747.982 40.4C749.689 38.6933 751.822 37.84 754.382 37.84C756.857 37.84 758.947 38.6933 760.654 40.4C762.446 42.0213 763.342 44.0693 763.342 46.544C763.342 48.9333 762.446 50.9813 760.654 52.688C758.947 54.3947 756.857 55.248 754.382 55.248ZM729.55 130V120.784H749.774V78.928C749.774 76.7947 748.707 75.728 746.574 75.728H731.726V66.512H749.134C756.729 66.512 760.526 70.3093 760.526 77.904V120.784H780.75V130H729.55ZM680.576 301.536C675.712 301.536 671.573 300.555 668.16 298.592C664.832 296.544 662.357 293.771 660.736 290.272H659.968L658.816 300H649.984V207.84H660.736V245.6C662.357 242.784 664.875 240.309 668.288 238.176C671.787 236.043 675.883 234.976 680.576 234.976C686.037 234.976 690.859 236.256 695.04 238.816C699.221 241.376 702.507 245.131 704.896 250.08C707.285 255.029 708.48 261.045 708.48 268.128C708.48 275.296 707.285 281.397 704.896 286.432C702.507 291.381 699.179 295.136 694.912 297.696C690.731 300.256 685.952 301.536 680.576 301.536ZM679.168 291.296C684.544 291.296 688.939 289.419 692.352 285.664C695.851 281.824 697.6 276.021 697.6 268.256C697.6 260.491 695.851 254.731 692.352 250.976C688.939 247.136 684.544 245.216 679.168 245.216C673.792 245.216 669.355 247.136 665.856 250.976C662.357 254.731 660.608 260.491 660.608 268.256C660.608 276.021 662.357 281.824 665.856 285.664C669.355 289.419 673.792 291.296 679.168 291.296ZM750.67 301.536C742.99 301.536 737.187 299.232 733.262 294.624C729.337 290.016 727.374 283.36 727.374 274.656V236.512H738.126V273.376C738.126 279.008 739.363 283.445 741.838 286.688C744.398 289.845 748.238 291.424 753.358 291.424C758.478 291.424 762.787 289.717 766.286 286.304C769.785 282.805 771.534 277.813 771.534 271.328V236.512H782.286V300H773.326L772.174 290.4H771.534C769.827 293.472 767.139 296.117 763.47 298.336C759.801 300.469 755.534 301.536 750.67 301.536ZM831.132 225.248C828.572 225.248 826.439 224.395 824.732 222.688C823.025 220.981 822.172 218.933 822.172 216.544C822.172 214.069 823.025 212.021 824.732 210.4C826.439 208.693 828.572 207.84 831.132 207.84C833.607 207.84 835.697 208.693 837.404 210.4C839.196 212.021 840.092 214.069 840.092 216.544C840.092 218.933 839.196 220.981 837.404 222.688C835.697 224.395 833.607 225.248 831.132 225.248ZM806.3 300V290.784H826.524V248.928C826.524 246.795 825.457 245.728 823.324 245.728H808.476V236.512H825.884C833.479 236.512 837.276 240.309 837.276 247.904V290.784H857.5V300H806.3ZM879.85 300V290.784H901.482V220.256C901.482 218.123 900.415 217.056 898.282 217.056H882.154V207.84H900.842C904.511 207.84 907.327 208.821 909.29 210.784C911.253 212.747 912.234 215.563 912.234 219.232V290.784H933.866V300H879.85ZM983.224 301.536C977.848 301.536 973.027 300.256 968.76 297.696C964.579 295.136 961.293 291.381 958.904 286.432C956.515 281.397 955.32 275.296 955.32 268.128C955.32 261.045 956.515 255.029 958.904 250.08C961.293 245.131 964.579 241.376 968.76 238.816C973.027 236.256 977.848 234.976 983.224 234.976C988.259 234.976 992.397 235.957 995.64 237.92C998.968 239.883 1001.44 242.443 1003.06 245.6V207.84H1013.82V300H1004.98L1003.83 290.144H1003.06C1001.36 293.643 998.84 296.416 995.512 298.464C992.184 300.512 988.088 301.536 983.224 301.536ZM984.632 291.296C990.008 291.296 994.445 289.419 997.944 285.664C1001.44 281.824 1003.19 276.021 1003.19 268.256C1003.19 260.491 1001.44 254.731 997.944 250.976C994.445 247.136 990.008 245.216 984.632 245.216C979.256 245.216 974.819 247.136 971.32 250.976C967.907 254.731 966.2 260.491 966.2 268.256C966.2 276.021 967.907 281.824 971.32 285.664C974.819 289.419 979.256 291.296 984.632 291.296ZM1062.79 301.536C1056.82 301.536 1051.53 300.171 1046.92 297.44C1042.4 294.624 1038.81 290.741 1036.17 285.792C1033.52 280.757 1032.2 274.912 1032.2 268.256C1032.2 261.6 1033.48 255.797 1036.04 250.848C1038.68 245.813 1042.31 241.931 1046.92 239.2C1051.53 236.384 1056.9 234.976 1063.05 234.976C1069.19 234.976 1074.44 236.384 1078.79 239.2C1083.14 241.931 1086.47 245.557 1088.77 250.08C1091.08 254.603 1092.23 259.467 1092.23 264.672C1092.23 265.611 1092.19 266.549 1092.1 267.488C1092.1 268.427 1092.1 269.493 1092.1 270.688H1042.82C1043.08 275.381 1044.14 279.307 1046.02 282.464C1047.98 285.536 1050.42 287.84 1053.32 289.376C1056.3 290.912 1059.46 291.68 1062.79 291.68C1067.48 291.68 1071.15 290.699 1073.8 288.736C1076.44 286.773 1078.45 284.043 1079.81 280.544H1090.44C1088.99 286.432 1085.96 291.424 1081.35 295.52C1076.74 299.531 1070.56 301.536 1062.79 301.536ZM1062.79 244.576C1057.84 244.576 1053.49 246.069 1049.73 249.056C1046.06 252.043 1043.8 256.224 1042.95 261.6H1081.61C1081.26 256.309 1079.34 252.171 1075.85 249.184C1072.43 246.112 1068.08 244.576 1062.79 244.576ZM1111.25 300V290.784H1127.51V248.928C1127.51 246.795 1126.48 245.728 1124.44 245.728H1112.92V236.512H1128.4C1131.22 236.512 1133.48 237.28 1135.19 238.816C1136.89 240.352 1137.75 242.613 1137.75 245.6V248.288H1138.26C1139.28 244.021 1141.2 240.736 1144.02 238.432C1146.92 236.128 1150.93 234.976 1156.05 234.976H1167.7V246.368H1154.52C1149.31 246.368 1145.3 248.117 1142.48 251.616C1139.67 255.029 1138.26 259.424 1138.26 264.8V290.784H1158.23V300H1111.25ZM1216.29 301.536C1208.18 301.536 1201.61 299.659 1196.58 295.904C1191.63 292.064 1188.86 286.816 1188.26 280.16H1199.39C1199.91 283.659 1201.61 286.517 1204.51 288.736C1207.5 290.955 1211.51 292.064 1216.55 292.064C1221.32 292.064 1224.87 291.04 1227.17 288.992C1229.56 286.944 1230.75 284.597 1230.75 281.952C1230.75 278.368 1229.35 275.936 1226.53 274.656C1223.71 273.291 1219.49 272.267 1213.86 271.584C1207.12 270.816 1201.53 268.981 1197.09 266.08C1192.65 263.179 1190.43 258.827 1190.43 253.024C1190.43 247.819 1192.61 243.509 1196.96 240.096C1201.31 236.683 1207.24 234.976 1214.75 234.976C1222.18 234.976 1228.02 236.683 1232.29 240.096C1236.56 243.424 1238.99 248.203 1239.59 254.432H1228.96C1228.71 251.36 1227.21 248.928 1224.48 247.136C1221.84 245.259 1218.51 244.32 1214.5 244.32C1210.32 244.32 1207.07 245.131 1204.77 246.752C1202.47 248.288 1201.31 250.336 1201.31 252.896C1201.31 255.456 1202.59 257.589 1205.15 259.296C1207.8 260.917 1211.94 261.984 1217.57 262.496C1222.01 263.008 1226.06 263.861 1229.73 265.056C1233.4 266.251 1236.3 268.128 1238.43 270.688C1240.65 273.248 1241.76 276.832 1241.76 281.44C1241.85 285.28 1240.78 288.736 1238.56 291.808C1236.43 294.795 1233.44 297.184 1229.6 298.976C1225.76 300.683 1221.32 301.536 1216.29 301.536ZM651.264 470V406.512H660.224L661.376 416.112H662.016C663.723 413.04 666.411 410.437 670.08 408.304C673.749 406.085 677.973 404.976 682.752 404.976C690.517 404.976 696.32 407.28 700.16 411.888C704.085 416.496 706.048 423.152 706.048 431.856V470H695.296V433.136C695.296 427.504 694.059 423.109 691.584 419.952C689.109 416.709 685.269 415.088 680.064 415.088C675.029 415.088 670.763 416.837 667.264 420.336C663.765 423.749 662.016 428.699 662.016 435.184V470H651.264ZM755.79 471.536C749.817 471.536 744.526 470.171 739.918 467.44C735.395 464.624 731.811 460.741 729.166 455.792C726.521 450.757 725.198 444.912 725.198 438.256C725.198 431.6 726.478 425.797 729.038 420.848C731.683 415.813 735.31 411.931 739.918 409.2C744.526 406.384 749.902 404.976 756.046 404.976C762.19 404.976 767.438 406.384 771.79 409.2C776.142 411.931 779.47 415.557 781.774 420.08C784.078 424.603 785.23 429.467 785.23 434.672C785.23 435.611 785.187 436.549 785.102 437.488C785.102 438.427 785.102 439.493 785.102 440.688H735.822C736.078 445.381 737.145 449.307 739.022 452.464C740.985 455.536 743.417 457.84 746.318 459.376C749.305 460.912 752.462 461.68 755.79 461.68C760.483 461.68 764.153 460.699 766.798 458.736C769.443 456.773 771.449 454.043 772.814 450.544H783.438C781.987 456.432 778.958 461.424 774.35 465.52C769.742 469.531 763.555 471.536 755.79 471.536ZM755.79 414.576C750.841 414.576 746.489 416.069 742.734 419.056C739.065 422.043 736.803 426.224 735.95 431.6H774.606C774.265 426.309 772.345 422.171 768.846 419.184C765.433 416.112 761.081 414.576 755.79 414.576ZM838.556 470C832.753 470 828.188 468.592 824.86 465.776C821.532 462.96 819.868 457.883 819.868 450.544V415.728H803.74V406.512H813.34C817.692 406.512 820.209 404.379 820.892 400.112L822.684 390.256H830.62V406.512H855.964V415.728H830.62V450.544C830.62 454.128 831.431 456.645 833.052 458.096C834.759 459.547 837.66 460.272 841.756 460.272H855.964V470H838.556ZM886.122 470L872.042 406.512H882.666L891.754 454L902.634 406.512H914.666L925.546 454L934.634 406.512H945.386L931.178 470H920.17L908.65 420.72L897.13 470H886.122ZM985.4 471.536C979.427 471.536 974.136 470.171 969.528 467.44C964.92 464.709 961.293 460.869 958.648 455.92C956.003 450.885 954.68 444.997 954.68 438.256C954.68 431.515 956.003 425.669 958.648 420.72C961.293 415.685 964.92 411.803 969.528 409.072C974.136 406.341 979.427 404.976 985.4 404.976C991.373 404.976 996.664 406.341 1001.27 409.072C1005.88 411.803 1009.51 415.685 1012.15 420.72C1014.8 425.669 1016.12 431.515 1016.12 438.256C1016.12 444.997 1014.8 450.885 1012.15 455.92C1009.51 460.869 1005.88 464.709 1001.27 467.44C996.664 470.171 991.373 471.536 985.4 471.536ZM985.4 461.296C989.069 461.296 992.397 460.485 995.384 458.864C998.371 457.243 1000.72 454.725 1002.42 451.312C1004.22 447.899 1005.11 443.547 1005.11 438.256C1005.11 432.965 1004.22 428.613 1002.42 425.2C1000.72 421.787 998.371 419.269 995.384 417.648C992.397 416.027 989.069 415.216 985.4 415.216C981.816 415.216 978.531 416.027 975.544 417.648C972.557 419.269 970.168 421.787 968.376 425.2C966.584 428.613 965.688 432.965 965.688 438.256C965.688 446.192 967.608 452.037 971.448 455.792C975.288 459.461 979.939 461.296 985.4 461.296ZM1034.5 470V460.784H1050.76V418.928C1050.76 416.795 1049.73 415.728 1047.69 415.728H1036.17V406.512H1051.65C1054.47 406.512 1056.73 407.28 1058.44 408.816C1060.14 410.352 1061 412.613 1061 415.6V418.288H1061.51C1062.53 414.021 1064.45 410.736 1067.27 408.432C1070.17 406.128 1074.18 404.976 1079.3 404.976H1090.95V416.368H1077.77C1072.56 416.368 1068.55 418.117 1065.73 421.616C1062.92 425.029 1061.51 429.424 1061.51 434.8V460.784H1081.48V470H1034.5ZM1114.71 470V377.84H1125.46V433.392L1151.96 406.512H1165.65L1137.36 434.8V435.568L1169.11 470H1155.8L1125.46 436.976V470H1114.71Z" fill="#1C1C1E"/>
<defs>
<linearGradient id="paint0_linear_15_48" x1="256" y1="0" x2="256" y2="512" gradientUnits="userSpaceOnUse">
<stop stop-color="white" stop-opacity="0"/>
<stop offset="0.4" stop-color="white" stop-opacity="0.4"/>
<stop offset="0.6" stop-color="white" stop-opacity="0.4"/>
<stop offset="1" stop-color="white" stop-opacity="0"/>
</linearGradient>
<linearGradient id="paint1_linear_15_48" x1="512" y1="256" x2="0" y2="256" gradientUnits="userSpaceOnUse">
<stop stop-color="white" stop-opacity="0"/>
<stop offset="0.4" stop-color="white" stop-opacity="0.4"/>
<stop offset="0.6" stop-color="white" stop-opacity="0.4"/>
<stop offset="1" stop-color="white" stop-opacity="0"/>
</linearGradient>
</defs>
</svg>
